<svg xmlns="http://www.w3.org/2000/svg" viewBox="0 0 525.08 525.05"><defs><style>.cls-1{fill:#662d91;}.cls-2{fill:#662d91;}.cls-3{fill:none;stroke:#662d91;stroke-miterlimit:10;stroke-width:10px;}</style></defs><title>Asset 4</title><g id="Layer_2" data-name="Layer 2"><g id="Layer_1-2" data-name="Layer 1"><path class="cls-1" d="M262.56,296a33.5,33.5,0,1,1,33.5-33.5A33.54,33.54,0,0,1,262.56,296Z"/><path class="cls-2" d="M262.56,229.5a33,33,0,1,1-33,33,33,33,0,0,1,33-33m0-1a34,34,0,1,0,34,34,34,34,0,0,0-34-34Z"/><line class="cls-3" x1="263.06" x2="263.06" y2="202"/><line class="cls-3" x1="525.05" y1="261.5" x2="323.06" y2="262.65"/><line class="cls-3" x1="265.06" y1="524.99" x2="262.75" y2="323"/><line class="cls-3" x1="0.09" y1="266.5" x2="202.06" y2="263.04"/><line class="cls-3" x1="78.3" y1="74.54" x2="221.14" y2="217.37"/><line class="cls-3" x1="448.47" y1="74.19" x2="306.45" y2="217.84"/><line class="cls-3" x1="450.94" y1="444.35" x2="306.48" y2="303.15"/><line class="cls-3" x1="80.8" y1="448.93" x2="221.16" y2="303.67"/></g></g></svg>