<svg xmlns="http://www.w3.org/2000/svg" width="98.312" height="44.926" viewBox="0 0 98.312 44.926">
  <g id="Group_1" data-name="Group 1" transform="translate(-917.684 -500.926)">
    <path id="Path_1" data-name="Path 1" d="M1444,840.333s-4.333,1.167-5.5-1-.833-7.667,5.5-8.167" transform="translate(-437 -318)" fill="none" stroke="#1e90ff" stroke-width="3"/>
    <path id="Path_2" data-name="Path 2" d="M1439.667,840.333s-9,5.833-10.167,8.167c.167,0-3.5,1.333-4.333-1.5s0-3.167,0-3.167S1421,849.167,1417,848.5c.167-.167-2.167-2.833-2.167-2.833s-.667,3.5-3.5,4-11.5,0-24-30.167" transform="translate(-437 -318)" fill="none" stroke="#1e90ff" stroke-width="3"/>
    <path id="Path_3" data-name="Path 3" d="M1388.833,863c6.667-9.667,38.5-30.333,38.5-30.333l13.5-10.833c2.667-.667,9.167,1.333,9.167,1.333-4.524,4-30.256,8.276-54.053,11.479-21.35,2.874-41.114,4.854-41.114,4.854s38.167,3.333,40.667-3.333" transform="translate(-437 -318)" fill="none" stroke="#1e90ff" stroke-width="3"/>
  </g>
</svg>
